<svg xmlns="http://www.w3.org/2000/svg" xmlns:xlink="http://www.w3.org/1999/xlink" width="16px" height="20px"><path fill-rule="evenodd"  fill="rgb(240, 26, 33)" d="M15.000,13.000 L15.000,14.000 L14.000,14.000 L14.000,15.000 L13.000,15.000 L13.000,16.000 L12.000,16.000 L12.000,17.000 L11.000,17.000 L11.000,18.000 L10.000,18.000 L10.000,19.000 L9.000,19.000 L9.000,20.000 L7.000,20.000 L7.000,19.000 L6.000,19.000 L6.000,18.000 L5.000,18.000 L5.000,17.000 L4.000,17.000 L4.000,16.000 L3.000,16.000 L3.000,15.000 L2.000,15.000 L2.000,14.000 L1.000,14.000 L1.000,13.000 L-0.000,13.000 L-0.000,11.000 L2.000,11.000 L2.000,12.000 L3.000,12.000 L3.000,13.000 L4.000,13.000 L4.000,14.000 L5.000,14.000 L5.000,15.000 L6.000,15.000 L6.000,16.000 L7.000,16.000 L7.000,-0.000 L9.000,-0.000 L9.000,16.000 L10.000,16.000 L10.000,15.000 L11.000,15.000 L11.000,14.000 L12.000,14.000 L12.000,13.000 L13.000,13.000 L13.000,12.000 L14.000,12.000 L14.000,11.000 L16.000,11.000 L16.000,13.000 L15.000,13.000 Z"/></svg>