<svg xmlns="http://www.w3.org/2000/svg" width="158" height="38"><path fill-rule="evenodd" fill="#F01A21" d="M124 37.999v-5h14v-7h-13v-5h32v5h-13v7h14v5h-34zm33-25v5h-8c-1.432 0-2.276-1.578-2.963-3.275L144 8.999h6l1 4h6zm-25-4h6l-2.037 5.725c-.688 1.697-1.531 3.275-2.963 3.275h-8v-5h6l1-4zm21-2h-24v3h-5v-6l2-2h11l1-2h6l1 2h11l2 1.857v6.143h-5v-3zm-70 26h15v-2H85v-4h13V25H84l-1-1.001-1-1v-4h5l-.111 1.966L98 20.999v-3h6v3h14V25h-14v1.999h13v4h-13v2h14v5H83v-5zM85 17l-2-2.001v-12l2-2h5l1.074-1H94l1 1h11l1-1h2.926l1.074 1h5l2 2v12L116 17H85zm23.304-2.296c1.067 0 1.932-.87 1.932-1.945a1.94 1.94 0 0 0-1.932-1.947 1.94 1.94 0 0 0-1.932 1.947c0 1.075.865 1.945 1.932 1.945zM97 7.999h-3v-3h-3v3h-3V11h3v2.999h3V11h3V7.999zm7.441-1.077a1.94 1.94 0 0 0-1.932 1.945 1.94 1.94 0 0 0 1.932 1.945 1.94 1.94 0 0 0 1.931-1.945 1.94 1.94 0 0 0-1.931-1.945zm3.863-3.892c-1.067 0-1.932.87-1.932 1.945a1.94 1.94 0 0 0 1.932 1.947 1.94 1.94 0 0 0 1.932-1.947 1.938 1.938 0 0 0-1.932-1.945zm3.863 3.892a1.938 1.938 0 0 0-1.931 1.945c0 1.073.864 1.945 1.931 1.945a1.94 1.94 0 0 0 1.932-1.945 1.94 1.94 0 0 0-1.932-1.945zM68.629 37.999c-1.431 0-2.592-1.173-2.592-2.62L63 26.999H47v6h4l.074 5H44l-2-2v-33l2-2h30l2 2v12L74 17l-8.26.034L67 21.999h9v5h-7l2 6h5v5H68.629zM47 21.999h14l-1.445-4.965L47 17v4.999zm24-10V6H47v5.999h24zm-39 24l-2 2L25 38v-4.001h2v-7h-5V38h-5V16h-3v21.999L9 38V7.999H8v-5h4l-1-2h7l.555 1.931L22 2.999v5h-8v4h8V12h-2a2 2 0 0 1 2 1.999v8h5v-1L29 16h-6v-5h12-2a2 2 0 0 1 2 1.999V16l-3 4.999v1h4v5h-4v9zm-9-33l1-2h6L28.926 2.93 35 2.999v5H23v-5zm-16 33l-2 2L0 38v-4.001h2v-15h5v17zM1 16c-1.173-1.995-1-3.76-1-3.76V9.999h4l1 3h1V17s-4.181-.133-5-1zm0-8.001C-.173 6.005 0 4.241 0 4.241V1.999h4l1 3h1v4s-4.181-.132-5-1z"/></svg>