<svg xmlns="http://www.w3.org/2000/svg" width="65" height="93"><path fill-rule="evenodd" fill="#ccc" d="M54 2h1v36h-1V2zm0 55h1v36h-1V57zm1-19h1v1h-1v-1zm1 1h1v1h-1v-1zm1 1h1v1h-1v-1zm1 1h1v1h-1v-1zm1 1h1v1h-1v-1zm1 1h1v1h-1v-1zm1 1h1v1h-1v-1zm1 1h1v1h-1v-1zm1 1h1v1h-1v-1zm1 1h1v1h-1v-1zm-1 1h1v1h-1v-1zm-1 1h1v1h-1v-1zm-1 1h1v1h-1v-1zm-1 1h1v1h-1v-1zm-1 1h1v1h-1v-1zm-1 1h1v1h-1v-1zm-1 1h1v1h-1v-1zm-1 1h1v1h-1v-1zm-1 1h1v1h-1v-1z"/><path fill-rule="evenodd" fill="#333" d="M0 33c9-.31 15.13-2.16 19.34-7.6l5.67 5.76A6.28 6.28 0 0 0 28.7 33H32v-5h-1.19a6.1 6.1 0 0 1-1.67-1l-5.41-6H32v-5h-9V0h-6v16H0v5h14.46c-3.52 4.91-8.9 5.78-14.46 6v6zm19 50v6a3.27 3.27 0 0 1-3 3h-5.4l.76-4H13v-5H0v-5h13v-1h6v1h13v5H19zM0 77v-5c2.86-.18 6.65-.33 9.06-.69-3.2-1.83-4.9-3.63-5.97-6.31h6.18c1.35 1.92 3.14 3.1 7.17 4.44 4.35-1.48 5.92-3.25 7.06-5.44H2.78a1.63 1.63 0 0 1-1.53-1.85A17.35 17.35 0 0 1 3.32 58h5.95l-.9 1.97 20.66.03a2.01 2.01 0 0 1 1.96 2.3c-.74 3.7-3.28 6.71-7.34 9.06 2.38.35 5.52.46 8.35.64v5a74.25 74.25 0 0 1-15.66-2.47A84.96 84.96 0 0 1 0 77zm11 7l-4.04 8H1l4-8h6zm19 8h-6l-3-8h6z"/><path fill-rule="evenodd" fill="#f01a21" d="M2 2h11v4H2V2zm0 6h11v4H2V8z"/></svg>